<svg height="350" viewBox="0 0 420 350" width="420" xmlns="http://www.w3.org/2000/svg"><path d="m344 106.23 32 18.48.06-36.92-32.06-18.51z" fill="#a3b7d6"/><path d="m376 87.76 32-18.48v36.95l-32 18.48z" fill="#c8d4e6"/><path d="m408 69.28-32-18.47-32 18.47 32 18.48z" fill="#ffb3cc"/><path d="m408 69.28v9.24l-32.03 18.49.03-9.25z" fill="#fa8aae"/><path d="m375.97 97.01-31.97-18.49v-9.24l32 18.48z" fill="#f21860"/><path d="m375.97 69.52 24.03-32.32-23.94 13.88-24.06-13.88z" fill="#f21860"/><path d="m400 37.2-24.03-23.23-23.97 23.23 24.06 13.88z" fill="#ffb3cc"/><path d="m376.06 51.08-.09-37.11 24.03 23.23z" fill="#fa8aae"/><path d="m376.06 51.08-.09 18.44 24.03-32.32z" fill="#f54680"/><path d="m362.4 107.54a4 4 0 0 1 -1.91-.6 11 11 0 0 1 -4.91-8.46c0-1.77.75-2.82 2-2.82a4 4 0 0 1 1.92.6 10.93 10.93 0 0 1 4.91 8.45c0 1.77-.75 2.83-2 2.83z" fill="#a3b7d6"/><path d="m357.59 96.66a3.06 3.06 0 0 1 1.42.47 10 10 0 0 1 4.4 7.58c0 .68-.13 1.83-1 1.83a3 3 0 0 1 -1.41-.47 10 10 0 0 1 -4.41-7.59c0-.68.13-1.82 1-1.82m0-2c-1.78 0-3 1.4-3 3.82a12 12 0 0 0 5.41 9.32 4.9 4.9 0 0 0 2.41.74c1.77 0 3-1.4 3-3.83a11.89 11.89 0 0 0 -5.41-9.32 4.92 4.92 0 0 0 -2.41-.73z" fill="#fff"/><path d="m360.03 101.6-43.64 25.64" fill="none" stroke="#f21860" stroke-linecap="round" stroke-linejoin="round" stroke-width="2"/><path d="m40 143.17v-55.43l48 27.72v55.42z" fill="#a3b7d6"/><path d="m40 87.74 48-27.71 48 27.71-48 27.72z" fill="#edf1f7"/><path d="m136 87.74-48 27.72v55.42l48-27.71z" fill="#c8d4e6"/><path d="m136 87.74-48 27.72v18.51l48-27.74z" fill="#8ae7fa"/><path d="m88 133.97-48-27.75v-18.48l48 27.72z" fill="#18cef2"/><path d="m136 87.74-48-27.71-48 27.71 48 27.72z" fill="#b3f2ff"/><path d="m192 147.8v-55.44l56 32.38.03 55.33z" fill="#a3b7d6"/><path d="m200 78.52 48-27.71 48 27.71-48 27.71z" fill="#edf1f7"/><path d="m303.94 92.37-55.94 32.37.03 55.33 55.91-32.27z" fill="#c8d4e6"/><path d="m304.06 73.87-56.06 32.36v18.51l56.06-32.38z" fill="#af8afa"/><path d="m248 124.74-56-32.38v-18.46l56 32.33z" fill="#8518f2"/><path d="m304.06 73.87-56.06-32.3-56 32.33 56 32.33z" fill="#ccb3ff"/><path d="m312 235.56v36.95l-88 50.81v-36.95z" fill="#8ae7fa"/><path d="m224 323.32-88-50.81v-36.96l88 50.82z" fill="#18cef2"/><path d="m312 198.64v36.95l-88 50.81v-36.95z" fill="#af8afa"/><path d="m224 286.4-88-50.81v-36.95l88 50.81z" fill="#8518f2"/><path d="m312 161.66v36.95l-88 50.8v-36.95z" fill="#fa8aae"/><path d="m224 249.41-88-50.8v-36.96l88 50.81z" fill="#f21860"/><path d="m224 212.46-88-50.81 88-50.8 88 50.81z" fill="#ffb3cc"/><path d="m64 314.06v-55.43l48 27.71v55.43z" fill="#a3b7d6"/><path d="m64 258.63 48-27.71 48 27.71-48 27.71z" fill="#edf1f7"/><path d="m160 258.63-48 27.71v55.43l48-27.71z" fill="#c8d4e6"/><path d="m160 258.63-48 27.71v18.51l48-27.73z" fill="#fa8aae"/><path d="m112 304.85-48-27.75v-18.47l48 27.71z" fill="#f21860"/><path d="m160 258.63-48-27.71-48 27.71 48 27.71z" fill="#ffb3cc"/><path d="m78.88 34.01-10.83 6.38v9.37l11.95 6.63h7.99v-22.38z" fill="#b3f2ff"/><path d="m88 87.76-26.5-27v-13.13l6.55-7.24 19.95 1.18z" fill="#18cef2"/><path d="m78.88 34.01-10.83 6.38v9.37l11.95 6.63h7.99v-22.38z" fill="#b3f2ff"/><path d="m77.13 70.99h10.86v-14.6h-7.99z" fill="#18cef2"/><path d="m77.13 70.99-15.63-10.23 6.55-11 11.95 6.63z" fill="#8ae7fa"/><path d="m88 87.76-26.5-27v-13.13l6.55-7.24 19.95 1.18z" fill="#18cef2"/><path d="m77.13 70.99-15.63-10.23 6.55-11 11.95 6.63z" fill="#46d8f5"/><path d="m97.13 34.01 10.82 6.38v9.37l-11.95 6.63h-7.99v-22.38z" fill="#b3f2ff"/><path d="m88 87.76 26.5-27v-13.13l-6.55-7.24-19.95 1.18z" fill="#18cef2"/><path d="m97.13 34.01 10.82 6.38v9.37l-11.95 6.63h-7.99v-22.38z" fill="#b3f2ff"/><path d="m98.87 70.99h-10.86v-14.6h7.99z" fill="#18cef2"/><path d="m98.87 70.99 15.63-10.23-6.55-11-11.95 6.63z" fill="#8ae7fa"/><path d="m88 87.76 26.5-27v-13.13l-6.55-7.24-19.95 1.18z" fill="#b3f2ff"/><path d="m97.13 34.01h-9.14-9.11l-10.83 6.38v9.37l11.95 6.63h7.01.98 8.01l11.95-6.63v-9.37z" fill="#b3f2ff"/><path d="m98.87 70.99-2.87-14.6h-16l-2.87 14.6z" fill="#74e2f7"/><path d="m98.87 70.99 15.63-10.23-6.55-11-11.95 6.63z" fill="#8ae7fa"/><path d="m114.5 60.76-26.5 27 10.87-16.77z" fill="#74e2f7"/><path d="m98.87 70.99-10.87 16.77-10.87-16.77z" fill="#46d8f5"/><path d="m248.03 60.16 7.97-4.63v-27.8l-7.97 4.6z" fill="#af8afa"/><path d="m248.03 60.16-8.03-4.63v-27.8l8.03 4.6z" fill="#8518f2"/><path d="m256 27.73-7.97-4.6-8.03 4.6 8.03 4.6z" fill="#d6c2ff"/><path d="m232.09 69.32 7.97-4.63v-27.8l-7.97 4.6z" fill="#af8afa"/><path d="m232.09 69.32-8.03-4.63v-27.8l8.03 4.6z" fill="#8518f2"/><path d="m240.06 36.89-7.97-4.6-8.03 4.6 8.03 4.6z" fill="#d6c2ff"/><path d="m247.91 78.53 7.97-4.64.12-46.16-8 4.6z" fill="#af8afa"/><path d="m247.91 78.53-8.03-4.64.18-46.16 7.94 4.6z" fill="#8518f2"/><path d="m256 27.73-7.97-4.6-7.97 4.6 7.94 4.6z" fill="#d6c2ff"/><path d="m248.03 97.01 7.97-4.63v-18.51l-7.97 4.6z" fill="#af8afa"/><path d="m248.03 97.01-8.03-4.63v-18.51l8.03 4.6z" fill="#8518f2"/><path d="m256 73.87-7.97-4.6-8.03 4.6 8.03 4.6z" fill="#d6c2ff"/><path d="m232.03 87.74 7.97-4.64v-27.71l-7.97 4.6z" fill="#af8afa"/><path d="m232.03 87.74-8.03-4.64v-27.71l8.03 4.6z" fill="#8518f2"/><path d="m240 55.39-7.97-4.6-8.03 4.6 8.03 4.6z" fill="#d6c2ff"/><path d="m263.97 69.28 7.97-4.64v-18.45l-7.97 4.6z" fill="#af8afa"/><path d="m263.97 69.28-8.03-4.64v-18.45l8.03 4.6z" fill="#8518f2"/><path d="m271.94 46.19-7.97-4.6-8.03 4.6 8.03 4.6z" fill="#d6c2ff"/><path d="m216.03 78.54 7.97-4.64v-27.71l-7.97 4.6z" fill="#af8afa"/><path d="m216.03 78.54-8.03-4.64v-27.71l8.03 4.6z" fill="#8518f2"/><path d="m224 46.19-7.97-4.6-8.03 4.6 8.03 4.6z" fill="#d6c2ff"/><path d="m264.03 87.74 7.97-4.64v-18.44l-7.97 4.6z" fill="#af8afa"/><path d="m264.03 87.74-8.03-4.64v-18.44l8.03 4.6z" fill="#8518f2"/><path d="m272 64.66-7.97-4.6-8.03 4.6 8.03 4.6z" fill="#d6c2ff"/><path d="m280.03 78.54 7.97-4.64v-36.97l-7.97 4.6z" fill="#af8afa"/><path d="m280.03 78.54-8.03-4.64v-36.97l8.03 4.6z" fill="#8518f2"/><path d="m288 36.93-7.97-4.6-8.03 4.6 8.03 4.6z" fill="#d6c2ff"/><path d="m108.45 147.38c-2.74 0-3-3.2-3-4.19 0-4.53 3.32-10.27 7.28-12.54a5.9 5.9 0 0 1 2.84-.89c1.86 0 3 1.56 3 4.18 0 4.52-3.33 10.26-7.28 12.54a5.87 5.87 0 0 1 -2.84.9z" fill="#c8d4e6"/><path d="m115.59 131.27c1.27 0 1.47 1.68 1.47 2.68 0 4-3.05 9.23-6.53 11.24a4.47 4.47 0 0 1 -2.08.69c-1.27 0-1.46-1.69-1.46-2.69 0-4 3-9.23 6.52-11.23a4.51 4.51 0 0 1 2.09-.69m0-3a7.31 7.31 0 0 0 -3.58 1.08c-4.43 2.54-8 8.76-8 13.84 0 3.6 1.83 5.68 4.46 5.68a7.27 7.27 0 0 0 3.58-1.09c4.42-2.55 8-8.78 8-13.84 0-3.59-1.82-5.68-4.47-5.68z" fill="#fff"/><path d="m268.43 249.59c-2.74 0-3-3.2-3-4.19 0-4.53 3.32-10.27 7.28-12.54a5.9 5.9 0 0 1 2.84-.89c1.86 0 3 1.56 3 4.18 0 4.52-3.33 10.26-7.28 12.54a5.87 5.87 0 0 1 -2.84.9z" fill="#af8afa"/><path d="m275.58 233.49c1.27 0 1.47 1.68 1.47 2.68 0 4-3.05 9.23-6.53 11.24a4.47 4.47 0 0 1 -2.08.69c-1.27 0-1.46-1.69-1.46-2.69 0-4 3-9.23 6.52-11.23a4.51 4.51 0 0 1 2.09-.69m0-3a7.31 7.31 0 0 0 -3.58 1.08c-4.43 2.54-8 8.76-8 13.84 0 3.6 1.83 5.68 4.46 5.68a7.27 7.27 0 0 0 3.53-1.09c4.42-2.55 8-8.78 8-13.84 0-3.59-1.82-5.68-4.47-5.68z" fill="#fff"/><path d="m163.34 202.78a5.86 5.86 0 0 1 -2.83-.89c-3.95-2.28-7.28-8-7.28-12.54 0-2.61 1.11-4.18 3-4.18a5.9 5.9 0 0 1 2.84.89c4 2.26 7.29 8 7.28 12.53 0 1-.22 4.19-3 4.19z" fill="#f21860"/><path d="m156.19 186.68a4.51 4.51 0 0 1 2.09.69c3.48 2 6.53 7.24 6.52 11.23 0 1-.19 2.69-1.46 2.69a4.47 4.47 0 0 1 -2.08-.69c-3.48-2-6.53-7.26-6.53-11.24 0-1 .19-2.68 1.47-2.68m0-3c-2.64 0-4.47 2.08-4.47 5.68 0 5.06 3.61 11.29 8 13.84a7.27 7.27 0 0 0 3.58 1.09c2.63 0 4.46-2.09 4.46-5.68 0-5.07-3.6-11.3-8-13.84a7.31 7.31 0 0 0 -3.58-1.08z" fill="#fff"/><path d="m211.61 304.41a5.86 5.86 0 0 1 -2.83-.89c-3.95-2.28-7.28-8-7.28-12.54 0-2.61 1.11-4.18 3-4.18a5.9 5.9 0 0 1 2.84.89c4 2.27 7.29 8 7.28 12.54 0 1-.22 4.19-3 4.19z" fill="#18cef2"/><path d="m204.47 288.3a4.51 4.51 0 0 1 2.09.69c3.48 2 6.53 7.24 6.52 11.23 0 1-.19 2.69-1.46 2.69a4.47 4.47 0 0 1 -2.08-.69c-3.48-2-6.53-7.26-6.53-11.24 0-1 .19-2.68 1.47-2.68m0-3c-2.64 0-4.47 2.08-4.47 5.68 0 5.06 3.61 11.29 8 13.84a7.27 7.27 0 0 0 3.58 1.09c2.63 0 4.46-2.09 4.46-5.68 0-5.07-3.6-11.3-8-13.84a7.31 7.31 0 0 0 -3.58-1.08z" fill="#fff"/><path d="m112 138.58 18 10.42a4 4 0 0 1 0 6.93l-20 11.54a4 4 0 0 0 0 6.93l36.95 21.4a10 10 0 0 0 10 0l2.83-1.63" fill="none" stroke="#18cef2" stroke-linecap="round" stroke-linejoin="round" stroke-width="2"/><path d="m352 240.19-32.03-18.47-39.94 23.06-8.09-4.64" fill="none" stroke="#18cef2" stroke-linecap="round" stroke-linejoin="round" stroke-width="2"/><path d="m264 314.7 32 18.47.06-36.91-32.06-18.51z" fill="#a3b7d6"/><path d="m296 296.22 32-18.47v36.95l-32 18.47z" fill="#c8d4e6"/><path d="m328 277.75-32-18.48-32 18.48 32 18.47z" fill="#ccb3ff"/><path d="m328 277.75v9.24l-32.03 18.49.03-9.26z" fill="#af8afa"/><path d="m295.97 305.48-31.97-18.49v-9.24l32 18.47z" fill="#8518f2"/><path d="m282.4 315.63a4 4 0 0 1 -1.91-.6 11 11 0 0 1 -4.91-8.46c0-1.77.75-2.82 2-2.82a4 4 0 0 1 1.92.6 10.93 10.93 0 0 1 4.91 8.45c0 1.77-.75 2.83-2 2.83z" fill="#a3b7d6"/><path d="m277.59 304.75a3.06 3.06 0 0 1 1.42.47 10 10 0 0 1 4.4 7.58c0 .68-.13 1.83-1 1.83a3 3 0 0 1 -1.41-.47 10 10 0 0 1 -4.41-7.59c0-.68.13-1.82 1-1.82m0-2c-1.78 0-3 1.4-3 3.82a12 12 0 0 0 5.41 9.32 4.9 4.9 0 0 0 2.41.74c1.77 0 3-1.4 3-3.83a11.89 11.89 0 0 0 -5.41-9.32 4.92 4.92 0 0 0 -2.41-.73z" fill="#fff"/><path d="m296.06 286.95-.09-55.4 16.02 46.19z" fill="#fa8aae"/><path d="m296.06 286.95-16.03-9.19 15.94-46.21z" fill="#f21860"/><path d="m309.32 270.06-13.35 7.7-13.29-7.7-2.65 7.7 16.03 9.19 15.93-9.21z" fill="#af8afa"/><path d="m309.32 270.06-2.67-7.7-10.68 6.13-10.62-6.13-2.67 7.7 13.29 7.7z" fill="#af8afa" opacity=".75"/><path d="m306.65 262.36-2.67-7.72-7.98 4.63-8.02-4.63-2.63 7.72 10.62 6.13z" fill="#af8afa" opacity=".5"/><path d="m303.98 254.64-2.67-7.67-5.34 3.08-5.31-3.1-2.68 7.69 8.02 4.63z" fill="#af8afa" opacity=".25"/><path d="m280 309.48-52.07 30a8 8 0 0 1 -8 0l-39.46-22.78a3 3 0 0 1 0-5.2l27.53-15.87" fill="none" stroke="#8518f2" stroke-linecap="round" stroke-miterlimit="10" stroke-width="2"/><path d="m264 207.85v-55.43l48 27.71v55.43z" fill="#a3b7d6"/><path d="m264 152.42 48-27.71 48 27.71-48 27.71z" fill="#edf1f7"/><path d="m360 152.42-48 27.71v55.43l48-27.71z" fill="#c8d4e6"/><path d="m360 152.42-48 27.71v18.51l48-27.73z" fill="#8ae7fa"/><path d="m312 198.64-48-27.75v-18.47l48 27.71z" fill="#18cef2"/><path d="m360 152.42-48-27.71-48 27.71 48 27.71z" fill="#b3f2ff"/><g fill="#18cef2"><path d="m348 152.42-4 2.31-4-2.31 4-2.31z"/><path d="m316 145.49-16 9.23-4-2.3 16-9.24z"/><path d="m313.79 153.43-8 4.61-4-2.3 8-4.62z"/><path d="m324.73 154.3-12.68 7.35-4-2.31 12.68-7.35z"/><path d="m316 133.94-4 2.31-4-2.31 4-2.31z"/><path d="m284 152.42-4 2.31-4-2.31 4-2.31z"/><path d="m316 170.89-4 2.31-4-2.31 4-2.31z"/></g><path d="m344 152.42-32 18.47-32-18.47 32-18.48z" fill="none" stroke="#18cef2" stroke-linecap="round" stroke-linejoin="round"/><path d="m332.66 212c-2.74 0-3-3.2-3-4.19 0-4.53 3.32-10.27 7.28-12.53a5.9 5.9 0 0 1 2.84-.89c1.86 0 3 1.56 3 4.18 0 4.52-3.33 10.26-7.28 12.54a5.86 5.86 0 0 1 -2.84.89z" fill="#c8d4e6"/><path d="m339.81 195.94c1.27 0 1.47 1.68 1.47 2.68 0 4-3.05 9.23-6.53 11.24a4.47 4.47 0 0 1 -2.08.69c-1.27 0-1.46-1.69-1.46-2.69 0-4 3-9.23 6.52-11.23a4.51 4.51 0 0 1 2.09-.69m0-3a7.31 7.31 0 0 0 -3.58 1.08c-4.43 2.54-8 8.76-8 13.84 0 3.6 1.83 5.68 4.46 5.68a7.27 7.27 0 0 0 3.58-1.09c4.42-2.55 8-8.78 8-13.84 0-3.59-1.82-5.68-4.47-5.68z" fill="#fff"/><path d="m336 203.25 27 15.57a10 10 0 0 1 5 8.66v15a4 4 0 0 1 -6 3.47l-10-5.77" fill="none" stroke="#18cef2" stroke-linecap="round" stroke-linejoin="round" stroke-width="2"/><path d="m88.06 69.32-32 18.4" fill="#8ae7fa"/></svg>