<svg width="1024" height="1024" viewBox="0 0 1024 1024" fill="none" xmlns="http://www.w3.org/2000/svg">
<mask id="mask0_104_46" style="mask-type:luminance" maskUnits="userSpaceOnUse" x="105" y="33" width="868" height="868">
<path d="M846.169 33H231.831C161.784 33 105 89.7842 105 159.831V774.169C105 844.216 161.784 901 231.831 901H846.169C916.216 901 973 844.216 973 774.169V159.831C973 89.7842 916.216 33 846.169 33Z" fill="white"/>
</mask>
<g mask="url(#mask0_104_46)">
<path d="M973 33H105V901H973V33Z" fill="url(#paint0_radial_104_46)"/>
<g opacity="0.45" filter="url(#filter0_f_104_46)">
<path d="M300 400C377.32 400 440 337.32 440 260C440 182.68 377.32 120 300 120C222.68 120 160 182.68 160 260C160 337.32 222.68 400 300 400Z" fill="#7C3AED" fill-opacity="0.28"/>
<path d="M760 470C859.411 470 940 389.411 940 290C940 190.589 859.411 110 760 110C660.589 110 580 190.589 580 290C580 389.411 660.589 470 760 470Z" fill="#3B82F6" fill-opacity="0.22"/>
<path d="M690 970C805.98 970 900 875.98 900 760C900 644.02 805.98 550 690 550C574.02 550 480 644.02 480 760C480 875.98 574.02 970 690 970Z" fill="#22C55E" fill-opacity="0.16"/>
<path d="M300 930C404.934 930 490 844.934 490 740C490 635.066 404.934 550 300 550C195.066 550 110 635.066 110 740C110 844.934 195.066 930 300 930Z" fill="#F59E0B" fill-opacity="0.14"/>
</g>
<g opacity="0.9" filter="url(#filter1_f_104_46)">
<path d="M190 151.4C190.773 151.4 191.4 150.773 191.4 150C191.4 149.227 190.773 148.6 190 148.6C189.226 148.6 188.6 149.227 188.6 150C188.6 150.773 189.226 151.4 190 151.4Z" fill="white" fill-opacity="0.85"/>
<path d="M249.998 211.1C250.606 211.1 251.098 210.608 251.098 210C251.098 209.393 250.606 208.9 249.998 208.9C249.391 208.9 248.898 209.393 248.898 210C248.898 210.608 249.391 211.1 249.998 211.1Z" fill="white" fill-opacity="0.55"/>
<path d="M320 120.9C320.497 120.9 320.9 120.497 320.9 120C320.9 119.503 320.497 119.1 320 119.1C319.503 119.1 319.1 119.503 319.1 120C319.1 120.497 319.503 120.9 320 120.9Z" fill="white" fill-opacity="0.45"/>
<path d="M410 181.2C410.663 181.2 411.2 180.663 411.2 180C411.2 179.337 410.663 178.8 410 178.8C409.337 178.8 408.8 179.337 408.8 180C408.8 180.663 409.337 181.2 410 181.2Z" fill="white" fill-opacity="0.6"/>
<path d="M520 131C520.552 131 521 130.552 521 130C521 129.448 520.552 129 520 129C519.448 129 519 129.448 519 130C519 130.552 519.448 131 520 131Z" fill="white" fill-opacity="0.5"/>
<path d="M609.998 211.3C610.716 211.3 611.298 210.718 611.298 210C611.298 209.282 610.716 208.7 609.998 208.7C609.28 208.7 608.698 209.282 608.698 210C608.698 210.718 609.28 211.3 609.998 211.3Z" fill="white" fill-opacity="0.75"/>
<path d="M740 151C740.552 151 741 150.552 741 150C741 149.448 740.552 149 740 149C739.448 149 739 149.448 739 150C739 150.552 739.448 151 740 151Z" fill="white" fill-opacity="0.55"/>
<path d="M840 231.4C840.773 231.4 841.4 230.773 841.4 230C841.4 229.227 840.773 228.6 840 228.6C839.226 228.6 838.6 229.227 838.6 230C838.6 230.773 839.226 231.4 840 231.4Z" fill="white" fill-opacity="0.7"/>
<path d="M210 361C210.552 361 211 360.552 211 360C211 359.448 210.552 359 210 359C209.448 359 209 359.448 209 360C209 360.552 209.448 361 210 361Z" fill="white" fill-opacity="0.5"/>
<path d="M310 431.2C310.663 431.2 311.2 430.663 311.2 430C311.2 429.337 310.663 428.8 310 428.8C309.337 428.8 308.8 429.337 308.8 430C308.8 430.663 309.337 431.2 310 431.2Z" fill="white" fill-opacity="0.62"/>
<path d="M450 360.9C450.497 360.9 450.9 360.497 450.9 360C450.9 359.503 450.497 359.1 450 359.1C449.503 359.1 449.1 359.503 449.1 360C449.1 360.497 449.503 360.9 450 360.9Z" fill="white" fill-opacity="0.38"/>
<path d="M579.998 421.1C580.606 421.1 581.098 420.608 581.098 420C581.098 419.393 580.606 418.9 579.998 418.9C579.391 418.9 578.898 419.393 578.898 420C578.898 420.608 579.391 421.1 579.998 421.1Z" fill="white" fill-opacity="0.58"/>
<path d="M700 381C700.552 381 701 380.552 701 380C701 379.448 700.552 379 700 379C699.448 379 699 379.448 699 380C699 380.552 699.448 381 700 381Z" fill="white" fill-opacity="0.48"/>
<path d="M819.998 431.3C820.716 431.3 821.298 430.718 821.298 430C821.298 429.282 820.716 428.7 819.998 428.7C819.28 428.7 818.698 429.282 818.698 430C818.698 430.718 819.28 431.3 819.998 431.3Z" fill="white" fill-opacity="0.72"/>
<path d="M190 611.2C190.663 611.2 191.2 610.663 191.2 610C191.2 609.337 190.663 608.8 190 608.8C189.337 608.8 188.8 609.337 188.8 610C188.8 610.663 189.337 611.2 190 611.2Z" fill="white" fill-opacity="0.6"/>
<path d="M270 721C270.552 721 271 720.552 271 720C271 719.448 270.552 719 270 719C269.448 719 269 719.448 269 720C269 720.552 269.448 721 270 721Z" fill="white" fill-opacity="0.5"/>
<path d="M409.998 651.1C410.606 651.1 411.098 650.608 411.098 650C411.098 649.393 410.606 648.9 409.998 648.9C409.391 648.9 408.898 649.393 408.898 650C408.898 650.608 409.391 651.1 409.998 651.1Z" fill="white" fill-opacity="0.56"/>
<path d="M540 740.9C540.497 740.9 540.9 740.497 540.9 740C540.9 739.503 540.497 739.1 540 739.1C539.503 739.1 539.1 739.503 539.1 740C539.1 740.497 539.503 740.9 540 740.9Z" fill="white" fill-opacity="0.4"/>
<path d="M650 651.2C650.663 651.2 651.2 650.663 651.2 650C651.2 649.337 650.663 648.8 650 648.8C649.337 648.8 648.8 649.337 648.8 650C648.8 650.663 649.337 651.2 650 651.2Z" fill="white" fill-opacity="0.62"/>
<path d="M779.998 721.1C780.606 721.1 781.098 720.608 781.098 720C781.098 719.393 780.606 718.9 779.998 718.9C779.391 718.9 778.898 719.393 778.898 720C778.898 720.608 779.391 721.1 779.998 721.1Z" fill="white" fill-opacity="0.55"/>
<path d="M859.998 621.3C860.716 621.3 861.298 620.718 861.298 620C861.298 619.282 860.716 618.7 859.998 618.7C859.28 618.7 858.698 619.282 858.698 620C858.698 620.718 859.28 621.3 859.998 621.3Z" fill="white" fill-opacity="0.7"/>
<path d="M359.998 851.1C360.606 851.1 361.098 850.608 361.098 850C361.098 849.393 360.606 848.9 359.998 848.9C359.391 848.9 358.898 849.393 358.898 850C358.898 850.608 359.391 851.1 359.998 851.1Z" fill="white" fill-opacity="0.55"/>
<path d="M519.998 861.3C520.716 861.3 521.298 860.718 521.298 860C521.298 859.282 520.716 858.7 519.998 858.7C519.28 858.7 518.698 859.282 518.698 860C518.698 860.718 519.28 861.3 519.998 861.3Z" fill="white" fill-opacity="0.7"/>
<path d="M700 841C700.552 841 701 840.552 701 840C701 839.448 700.552 839 700 839C699.448 839 699 839.448 699 840C699 840.552 699.448 841 700 841Z" fill="white" fill-opacity="0.48"/>
</g>
<g opacity="0.95" filter="url(#filter2_f_104_46)">
<path d="M150 110.9C150.497 110.9 150.9 110.497 150.9 110C150.9 109.503 150.497 109.1 150 109.1C149.503 109.1 149.1 109.503 149.1 110C149.1 110.497 149.503 110.9 150 110.9Z" fill="white" fill-opacity="0.55"/>
<path d="M210 90.9001C210.497 90.9001 210.9 90.4971 210.9 90.0001C210.9 89.5031 210.497 89.1001 210 89.1001C209.503 89.1001 209.1 89.5031 209.1 90.0001C209.1 90.4971 209.503 90.9001 210 90.9001Z" fill="white" fill-opacity="0.45"/>
<path d="M250 150.9C250.497 150.9 250.9 150.497 250.9 150C250.9 149.503 250.497 149.1 250 149.1C249.503 149.1 249.1 149.503 249.1 150C249.1 150.497 249.503 150.9 250 150.9Z" fill="white" fill-opacity="0.5"/>
<path d="M900 140.9C900.497 140.9 900.9 140.497 900.9 140C900.9 139.503 900.497 139.1 900 139.1C899.503 139.1 899.1 139.503 899.1 140C899.1 140.497 899.503 140.9 900 140.9Z" fill="white" fill-opacity="0.55"/>
<path d="M860 100.9C860.497 100.9 860.9 100.497 860.9 100C860.9 99.5027 860.497 99.1001 860 99.1001C859.503 99.1001 859.1 99.5027 859.1 100C859.1 100.497 859.503 100.9 860 100.9Z" fill="white" fill-opacity="0.45"/>
<path d="M820 160.9C820.497 160.9 820.9 160.497 820.9 160C820.9 159.503 820.497 159.1 820 159.1C819.503 159.1 819.1 159.503 819.1 160C819.1 160.497 819.503 160.9 820 160.9Z" fill="white" fill-opacity="0.5"/>
<path d="M140 420.9C140.497 420.9 140.9 420.497 140.9 420C140.9 419.503 140.497 419.1 140 419.1C139.503 419.1 139.1 419.503 139.1 420C139.1 420.497 139.503 420.9 140 420.9Z" fill="white" fill-opacity="0.55"/>
<path d="M170 520.9C170.497 520.9 170.9 520.497 170.9 520C170.9 519.503 170.497 519.1 170 519.1C169.503 519.1 169.1 519.503 169.1 520C169.1 520.497 169.503 520.9 170 520.9Z" fill="white" fill-opacity="0.45"/>
<path d="M930 420.9C930.497 420.9 930.9 420.497 930.9 420C930.9 419.503 930.497 419.1 930 419.1C929.503 419.1 929.1 419.503 929.1 420C929.1 420.497 929.503 420.9 930 420.9Z" fill="white" fill-opacity="0.55"/>
<path d="M900 520.9C900.497 520.9 900.9 520.497 900.9 520C900.9 519.503 900.497 519.1 900 519.1C899.503 519.1 899.1 519.503 899.1 520C899.1 520.497 899.503 520.9 900 520.9Z" fill="white" fill-opacity="0.45"/>
<path d="M180 840.9C180.497 840.9 180.9 840.497 180.9 840C180.9 839.503 180.497 839.1 180 839.1C179.503 839.1 179.1 839.503 179.1 840C179.1 840.497 179.503 840.9 180 840.9Z" fill="white" fill-opacity="0.55"/>
<path d="M240 880.9C240.497 880.9 240.9 880.497 240.9 880C240.9 879.503 240.497 879.1 240 879.1C239.503 879.1 239.1 879.503 239.1 880C239.1 880.497 239.503 880.9 240 880.9Z" fill="white" fill-opacity="0.45"/>
<path d="M860 860.9C860.497 860.9 860.9 860.497 860.9 860C860.9 859.503 860.497 859.1 860 859.1C859.503 859.1 859.1 859.503 859.1 860C859.1 860.497 859.503 860.9 860 860.9Z" fill="white" fill-opacity="0.55"/>
<path d="M800 900.9C800.497 900.9 800.9 900.497 800.9 900C800.9 899.503 800.497 899.1 800 899.1C799.503 899.1 799.1 899.503 799.1 900C799.1 900.497 799.503 900.9 800 900.9Z" fill="white" fill-opacity="0.45"/>
</g>
<g opacity="0.95" filter="url(#filter3_f_104_46)">
<path d="M792 116L796 130L810 134L796 138L792 152L788 138L774 134L788 130L792 116Z" fill="white" fill-opacity="0.8"/>
<path d="M246 508L249 518L259 521L249 524L246 534L243 524L233 521L243 518L246 508Z" fill="white" fill-opacity="0.6"/>
</g>
<path d="M973 33H105V901H973V33Z" fill="url(#paint1_radial_104_46)"/>
</g>
<path d="M336 578L340 592L354 596L340 600L336 614L332 600L318 596L332 592L336 578Z" fill="white" fill-opacity="0.8"/>
<path d="M609 424L615.222 445.778L637 452L615.222 458.222L609 480L602.778 458.222L581 452L602.778 445.778L609 424Z" fill="white" fill-opacity="0.8"/>
<path d="M161 282L165 296L179 300L165 304L161 318L157 304L143 300L157 296L161 282Z" fill="white" fill-opacity="0.8"/>
<path d="M666 712C666 728.809 669.311 745.454 675.743 760.983C682.176 776.513 691.604 790.624 703.491 802.509C715.376 814.396 729.487 823.824 745.017 830.257C760.546 836.689 777.191 840 794 840C810.809 840 827.454 836.689 842.983 830.257C858.513 823.824 872.624 814.396 884.509 802.509C896.396 790.624 905.824 776.513 912.257 760.983C918.689 745.454 922 728.809 922 712C922 695.191 918.689 678.546 912.257 663.017C905.824 647.487 896.396 633.376 884.509 621.491C872.624 609.604 858.513 600.176 842.983 593.743C827.454 587.311 810.809 584 794 584C777.191 584 760.546 587.311 745.017 593.743C729.487 600.176 715.376 609.604 703.491 621.491C691.604 633.376 682.176 647.487 675.743 663.017C669.311 678.546 666 695.191 666 712Z" stroke="white" stroke-width="28.3656" stroke-linecap="round" stroke-linejoin="round"/>
<path d="M814.907 838.322L794.001 754.666C756.326 753.415 722.89 731.57 722.89 704.889C722.89 677.397 754.733 655.111 794.001 655.111C833.268 655.111 850.89 669.333 865.112 697.778C865.453 698.46 874.925 729.28 893.556 790.222" stroke="white" stroke-width="28.3656" stroke-linecap="round" stroke-linejoin="round"/>
<path d="M793.999 697.777H794.139" stroke="white" stroke-width="28.3656" stroke-linecap="round" stroke-linejoin="round"/>
<path d="M609 203.333H509.444C501.9 203.333 494.666 206.33 489.332 211.665C483.996 216.999 481 224.233 481 231.777V288.666C481 296.21 483.996 303.445 489.332 308.78C494.666 314.114 501.9 317.111 509.444 317.111H552.111" stroke="white" stroke-width="25.0322" stroke-linecap="round" stroke-linejoin="round"/>
<path d="M609 288.666H708.555C716.099 288.666 723.334 285.67 728.668 280.336C734.003 275 737 267.766 737 260.222V203.333C737 195.789 734.003 188.554 728.668 183.22C723.334 177.886 716.099 174.889 708.555 174.889H665.889" stroke="white" stroke-width="25.0322" stroke-linecap="round" stroke-linejoin="round"/>
<path d="M552.11 203.333V146.444C552.11 138.9 555.107 131.666 560.441 126.332C565.775 120.997 573.011 118 580.555 118H637.444C644.987 118 652.222 120.997 657.556 126.332C662.891 131.666 665.888 138.9 665.888 146.444V217.555C665.888 225.099 662.891 232.335 657.556 237.669C652.222 243.003 644.987 246 637.444 246H580.555C573.011 246 565.775 248.997 560.441 254.331C555.107 259.666 552.11 266.9 552.11 274.444V345.555C552.11 353.099 555.107 360.335 560.441 365.669C565.775 371.003 573.011 374 580.555 374H637.444C644.987 374 652.222 371.003 657.556 365.669C662.891 360.335 665.888 353.099 665.888 345.555V288.666" stroke="white" stroke-width="25.0322" stroke-linecap="round" stroke-linejoin="round"/>
<path d="M594.777 160.667V160.806" stroke="white" stroke-width="25.0322" stroke-linecap="round" stroke-linejoin="round"/>
<path d="M623.222 331.333V331.473" stroke="white" stroke-width="25.0322" stroke-linecap="round" stroke-linejoin="round"/>
<path d="M441.251 54V970.5M288.501 54H848.584C875.592 54 901.493 64.7288 920.591 83.8263C939.688 102.924 950.417 128.825 950.417 155.833V766.833C950.417 793.841 939.688 819.743 920.591 838.84C901.493 857.938 875.592 868.667 848.584 868.667H288.501C274.997 868.667 262.046 863.302 252.497 853.754C242.948 844.205 237.584 831.254 237.584 817.75V104.917C237.584 91.4127 242.948 78.4619 252.497 68.9132C262.046 59.3644 274.997 54 288.501 54Z" stroke="black" stroke-width="64" stroke-linecap="round" stroke-linejoin="round"/>
<defs>
<filter id="filter0_f_104_46" x="54" y="54" width="942" height="972" filterUnits="userSpaceOnUse" color-interpolation-filters="sRGB">
<feFlood flood-opacity="0" result="BackgroundImageFix"/>
<feBlend mode="normal" in="SourceGraphic" in2="BackgroundImageFix" result="shape"/>
<feGaussianBlur stdDeviation="28" result="effect1_foregroundBlur_104_46"/>
</filter>
<filter id="filter1_f_104_46" x="187.4" y="117.9" width="675.098" height="744.6" filterUnits="userSpaceOnUse" color-interpolation-filters="sRGB">
<feFlood flood-opacity="0" result="BackgroundImageFix"/>
<feBlend mode="normal" in="SourceGraphic" in2="BackgroundImageFix" result="shape"/>
<feGaussianBlur stdDeviation="0.6" result="effect1_foregroundBlur_104_46"/>
</filter>
<filter id="filter2_f_104_46" x="137.9" y="87.9001" width="794.2" height="814.2" filterUnits="userSpaceOnUse" color-interpolation-filters="sRGB">
<feFlood flood-opacity="0" result="BackgroundImageFix"/>
<feBlend mode="normal" in="SourceGraphic" in2="BackgroundImageFix" result="shape"/>
<feGaussianBlur stdDeviation="0.6" result="effect1_foregroundBlur_104_46"/>
</filter>
<filter id="filter3_f_104_46" x="230.6" y="113.6" width="581.8" height="422.8" filterUnits="userSpaceOnUse" color-interpolation-filters="sRGB">
<feFlood flood-opacity="0" result="BackgroundImageFix"/>
<feBlend mode="normal" in="SourceGraphic" in2="BackgroundImageFix" result="shape"/>
<feGaussianBlur stdDeviation="1.2" result="effect1_foregroundBlur_104_46"/>
</filter>
<radialGradient id="paint0_radial_104_46" cx="0" cy="0" r="1" gradientUnits="userSpaceOnUse" gradientTransform="translate(520 330) rotate(90) scale(720)">
<stop stop-color="#22348A"/>
<stop offset="0.5" stop-color="#101F5A"/>
<stop offset="1" stop-color="#0A1233"/>
</radialGradient>
<radialGradient id="paint1_radial_104_46" cx="0" cy="0" r="1" gradientUnits="userSpaceOnUse" gradientTransform="translate(539 467) rotate(90) scale(640)">
<stop offset="0.65" stop-opacity="0"/>
<stop offset="1" stop-opacity="0.35"/>
</radialGradient>
</defs>
</svg>
