<svg height="561" preserveAspectRatio="xMidYMid" viewBox="0 0 724 561" width="724" xmlns="http://www.w3.org/2000/svg" xmlns:xlink="http://www.w3.org/1999/xlink"><linearGradient id="a" gradientUnits="objectBoundingBox" spreadMethod="pad" x1="0" x2="1" y1="0" y2="1"><stop offset="0" stop-color="#cbced0"/><stop offset="1" stop-color="#84838b"/></linearGradient><linearGradient id="b" gradientUnits="objectBoundingBox" spreadMethod="pad" x1="0" x2="1" y1="0" y2="1"><stop offset="0" stop-color="#276dc3"/><stop offset="1" stop-color="#165caa"/></linearGradient><g fill-rule="evenodd"><path d="m361.453 485.937c-199.124 0-360.547-108.109-360.547-241.468 0-133.36 161.423-241.469 360.547-241.469 199.125 0 360.547 108.109 360.547 241.469 0 133.359-161.422 241.468-360.547 241.468zm55.188-388.531c-151.352 0-274.047 73.908-274.047 165.078s122.695 165.078 274.047 165.078c151.351 0 263.046-50.529 263.046-165.078 0-114.513-111.695-165.078-263.046-165.078z" fill="url(#a)"/><path d="m550 377s21.822 6.585 34.5 13c4.399 2.226 12.01 6.668 17.5 12.5 5.378 5.712 8 11.5 8 11.5l86 145-139 .062-65-122.062s-13.31-22.869-21.5-29.5c-6.832-5.531-9.745-7.5-16.5-7.5-4.702 0-33.026 0-33.026 0l.026 158.974-123 .052v-406.088h247s112.5 2.029 112.5 109.062-107.5 115-107.5 115zm-53.5-135.976-74.463-.048-.037 69.05 74.5-.024s34.5-.107 34.5-35.125c0-35.722-34.5-33.853-34.5-33.853z" fill="url(#b)"/></g></svg>