<svg xmlns="http://www.w3.org/2000/svg" width="420" height="350" viewBox="0 0 420 350"><title>feature</title><g style="isolation:isolate"><polygon points="304 254.03 168 175.51 56 240.18 192 318.7 304 254.03" fill="#edf1f7"/><polygon points="304 254.03 304 124.7 168 46.18 168 175.51 304 254.03" fill="#a3b7d6"/><polygon points="304 124.7 320 115.47 320 244.8 304 254.03 304 124.7" fill="#c8d4e6"/><polygon points="320 115.47 184 36.95 168 46.18 304 124.7 320 115.47" fill="#edf1f7"/><polygon points="304 254.03 304 272.51 192 337.17 192 318.7 304 254.03" fill="#c8d4e6"/><polygon points="192 318.7 56 240.18 55.9 258.6 192 337.17 192 318.7" fill="#a3b7d6"/><polygon points="263.99 258.61 208 290.99 208 281.75 264.01 249.39 263.99 258.61" fill="#5d779b"/><polygon points="208 281.75 104 221.7 103.9 231 208 290.99 208 281.75" fill="#334866"/><polygon points="208 281.75 264.01 249.39 159.99 189.33 104 221.7 208 281.75" fill="#708db3"/><polygon points="296 129.33 272 143.11 272 253.96 296 240.18 296 129.33" fill="#c8d4e6"/><polygon points="296 129.33 176 60.05 152 73.83 272 143.11 296 129.33" fill="#edf1f7"/><polygon points="272 253.96 152 184.68 152 73.83 272 143.11 272 253.96" fill="#a3b7d6"/><path d="M164,90c-2.2-1.27-4-.23-4,2.31a8.87,8.87,0,0,0,4,6.93c2.2,1.27,4,.23,4-2.31A8.87,8.87,0,0,0,164,90Z" fill="#f21860"/><path d="M180,99.24c-2.2-1.27-4-.23-4,2.31a8.87,8.87,0,0,0,4,6.93c2.2,1.27,4,.23,4-2.31A8.87,8.87,0,0,0,180,99.24Z" fill="#ffc852"/><path d="M196,108.37c-2.2-1.27-4-.23-4,2.31a8.87,8.87,0,0,0,4,6.93c2.2,1.27,4,.23,4-2.31A8.87,8.87,0,0,0,196,108.37Z" fill="#2bff96"/><polygon points="264.09 240.16 160 180.13 160 106.06 264.09 166.26 264.09 240.16" fill="#fff"/><polygon points="384.03 185.07 336.03 157.36 336.03 64.98 384.03 92.69 384.03 185.07" fill="#f21860"/><polygon points="384.03 185.07 392.06 180.46 392.06 88.06 384.03 92.69 384.03 185.07" fill="#fa8aae"/><polygon points="344.06 60.38 336.03 64.98 384.03 92.69 392.06 88.06 344.06 60.38" fill="#ffb3cc"/><polygon points="384.03 92.69 384.04 120.41 336.03 92.78 336.03 64.98 384.03 92.69" fill="#b51248"/><line x1="345.56" y1="150.32" x2="363.29" y2="128.5" fill="#b51248" stroke="#b51248" stroke-linecap="round" stroke-miterlimit="10" stroke-width="7"/><path d="M365.73,141.27a7.52,7.52,0,0,1-3.61-1.16c-5.42-3.13-10-11.08-10-17.35,0-1.57.33-5.21,3.39-5.21a7.52,7.52,0,0,1,3.61,1.16c5.43,3.14,10,11.08,10,17.35C369.13,137.63,368.79,141.27,365.73,141.27Z" fill="#f21860"/><path d="M355.51,120.55a4.57,4.57,0,0,1,2.1.76c4.45,2.58,8.51,9.61,8.51,14.75a4.74,4.74,0,0,1-.4,2.21,4.56,4.56,0,0,1-2.11-.75c-4.45-2.57-8.51-9.6-8.51-14.75a4.76,4.76,0,0,1,.4-2.21m0-6c-3.78,0-6.39,3-6.39,8.21,0,7.32,5.18,16.29,11.51,19.95a10.37,10.37,0,0,0,5.11,1.56c3.78,0,6.4-3,6.4-8.21,0-7.31-5.18-16.29-11.51-19.95a10.36,10.36,0,0,0-5.11-1.56h0Z" fill="#b51248"/><polygon points="359.99 258.63 311.99 230.92 311.99 138.55 359.99 166.26 359.99 258.63" fill="#8518f2"/><polygon points="359.99 258.63 368.02 254.03 368.02 161.63 359.99 166.26 359.99 258.63" fill="#af8afa"/><polygon points="320.02 133.94 311.99 138.55 359.99 166.26 368.02 161.63 320.02 133.94" fill="#ccb3ff"/><polygon points="359.99 166.26 359.99 193.97 311.9 166.3 311.99 138.55 359.99 166.26" fill="#6412b5"/><polygon points="343.9 240.31 327.88 231.01 335.99 222.16 343.9 240.31" fill="#6412b5"/><polygon points="343.9 221.81 327.88 212.51 335.99 203.66 343.9 221.81" fill="#6412b5" opacity="0.75"/><polygon points="343.9 203.37 327.88 194.07 335.99 185.22 343.9 203.37" fill="#6412b5" opacity="0.5"/><polygon points="336.08 272.5 288.08 244.79 288.08 152.41 336.08 180.12 336.08 272.5" fill="#18cef2"/><g style="mix-blend-mode:multiply"><polygon points="328.09 258.61 296.09 240.13 296.09 203.18 312.08 212.42 312.08 221.65 328.08 230.9 328.09 258.61" fill="#18cef2" style="mix-blend-mode:multiply"/><polygon points="328.09 258.61 320.07 235.52 287.99 217.09 296.09 240.13 328.09 258.61" fill="#18cef2"/></g><polygon points="336.08 272.5 344.11 267.89 344.11 175.49 336.08 180.12 336.08 272.5" fill="#8ae7fa"/><polygon points="296.11 147.81 288.08 152.41 336.08 180.12 344.11 175.49 296.11 147.81" fill="#b3f2ff"/><polygon points="336.08 180.12 336.09 207.83 287.99 180.16 288.08 152.41 336.08 180.12" fill="#18cef2" opacity="0.5" style="mix-blend-mode:multiply"/><polygon points="312.08 175.49 312.08 184.73 328.1 193.94 328.1 184.7 312.08 175.49" fill="#18cef2" opacity="0.5" style="mix-blend-mode:multiply"/><polygon points="296.09 166.28 296.09 175.52 304.11 180.12 304.11 170.89 296.09 166.28" fill="#18cef2" opacity="0.5" style="mix-blend-mode:multiply"/><path d="M240,170.9c4.4,2.54,8,8.77,8,13.84s-3.6,7.14-8,4.6-8-8.77-8-13.84S235.6,168.36,240,170.9Z" fill="#18cef2"/><path d="M184,138.59c4.4,2.54,8,8.77,8,13.84s-3.6,7.14-8,4.6-8-8.77-8-13.84S179.59,136,184,138.59Z" fill="#18cef2"/></g></svg>