<svg xmlns="http://www.w3.org/2000/svg" width="940" height="274" viewBox="0 0 940 274"><title>nteract_logo_wide_red_inverted</title><polygon points="225.06 272.51 137.06 221.71 137.06 55.43 225.06 106.24 225.06 272.51" fill="#a3b7d6"/><polygon points="137.06 55.43 49.05 106.24 49.05 272.51 137.06 221.71 137.06 55.43" fill="#c8d4e6"/><polygon points="137.06 0 1.05 78.52 25.05 92.38 137.06 27.72 249.06 92.38 249.06 258.66 273.06 244.8 273.06 78.52 137.06 0" fill="#5d779b"/><polygon points="25.05 92.38 1.05 78.52 1.05 244.8 25.05 258.66 25.05 92.38" fill="#334866"/><polygon points="25.05 92.38 25.05 258.66 49.05 272.51 49.05 106.24 25.05 92.38" fill="#a3b7d6"/><polygon points="25.05 92.38 137.06 27.72 249.06 92.38 249.06 258.66 225.06 272.51 225.06 106.24 137.06 55.43 49.05 106.24 25.05 92.38" fill="#edf1f7"/><polygon points="137.06 92.37 193.06 124.71 193.06 189.37 137.06 221.71 81.06 189.37 81.06 124.71 137.06 92.37" fill="#ffb3cc"/><polygon points="137.06 221.71 137.06 157.04 81.06 124.71 81.06 189.37 137.06 221.71" fill="#f21860"/><polygon points="137.06 157.04 193.06 124.71 193.06 189.37 137.06 221.71 137.06 157.04" fill="#fa8aae"/><path d="M336.21,138.55a49.24,49.24,0,0,0-15.36,35.08v37.18c0,6.49,6.42,10.85,12.42,10.85s12.2-4.36,12.2-10.85V181.46c0-31.65,16.69-35.07,23.87-35.07,17.76,0,24.09,18.35,24.09,35.51v28.9c0,6.49,6.19,10.85,12,10.85,6,0,12.42-4.15,12.42-10.85V175.19c0-24.29-18.28-50.5-47.81-50.5A49.56,49.56,0,0,0,336.21,138.55Z" fill="#f21860"/><path d="M469.33,124.69H458.46V103.16c0-6.72-7.23-10.85-12.42-10.85-5.89,0-12.2,4.36-12.2,10.85v85.91c0,15.28,6.63,26.69,18.18,31.31a13.25,13.25,0,0,0,6.12,1.27c4.58,0,8.34-1.86,10.33-5.11a8.88,8.88,0,0,0,1.86-5.52c0-3.59-2-8.08-5.8-9.34-6.07-1.77-6.07-10.38-6.07-15.53V146.4h10.88c5.19,0,12.42-4.13,12.42-10.86S474.52,124.69,469.33,124.69Z" fill="#edf1f7"/><path d="M584.35,152.32c-5.24-11.6-15.36-20.39-28.5-24.76-12.58-4.18-26.29-3.64-37.61,1.47a57.41,57.41,0,0,0-27.41,25.86c-4.55,9.05-8.29,23.56-.29,41.28a46.75,46.75,0,0,0,4.92,8.41h0a52.21,52.21,0,0,0,36.11,18.93c17.2,1.4,35.51-6.54,46.65-20.23a10.13,10.13,0,0,0,1.83-5.5,10.44,10.44,0,0,0-3-8.16,12.23,12.23,0,0,0-7.7-3.71c-5.5-.45-9.13,2.79-13.32,6.55-4.71,4.4-11.09,10.38-22.49,9.45a26.8,26.8,0,0,1-15.89-6.63l-1.12-1L579,166a10.38,10.38,0,0,0,5.4-13.6Zm-74.54,23.61,0-1.55c-.09-5.36,1.28-18.55,16.08-25.23,8.15-3.68,21-3.84,29.84,4.5l1.11,1Z" fill="#edf1f7"/><path d="M655,124.24a54.89,54.89,0,0,0-34.08,12.09,48.91,48.91,0,0,0-18.22,38.19v36.29c0,6.49,6.42,10.85,12.42,10.85s12.2-4.36,12.2-10.85V181c0-8.07,0-13.9,2.8-19.5a29.86,29.86,0,0,1,9.72-11.12l0,.06A29.21,29.21,0,0,1,655,145.94c5.87,0,12.2-4.15,12.2-10.85S660.88,124.24,655,124.24Z" fill="#edf1f7"/><path d="M780.1,203l-.43-.4c-2.5-2-5-4.35-5.67-7.7l-.72-3.39.56.57c-.09-1.37-.09-2.71-.09-3.88V172.77c0-27.47-27-48-51.13-48a57.94,57.94,0,0,0-36,12.39c-7.95,6.44-17.42,18.23-17.42,37.85a46.7,46.7,0,0,0,15.45,34.75,54.16,54.16,0,0,0,69.52,2.5l.88-.69.61.94a26.67,26.67,0,0,0,10.66,9.23v-.25l1.48.74a13.31,13.31,0,0,0,5.81,1.46c5.11,0,12.19-3.77,12.19-10.84C785.84,208.35,783.18,205.88,780.1,203Zm-58.82-1a27.8,27.8,0,0,1-27.65-27.88c0-11.48,8.58-27.65,27.65-27.65,10.69,0,27.65,7.51,27.65,27.65A27.8,27.8,0,0,1,721.28,202Z" fill="#edf1f7"/><path d="M876.75,193.43l0,0a14.37,14.37,0,0,0-8.55-3.13,12.06,12.06,0,0,0-8.51,3.54c-.55.55-1.45,1.28-2.4,2.05-.62.5-1.27,1-1.89,1.56l0,0a28.27,28.27,0,0,1-30.56.13c-7.61-5.07-12.14-13.94-12.14-23.74,0-14.9,12.69-27.49,27.72-27.49a27.42,27.42,0,0,1,15.13,4.65l.17.13a17.8,17.8,0,0,0,3.59,2.61l.45.31a10.76,10.76,0,0,0,8,3.07,13.25,13.25,0,0,0,8.74-3.1,10.12,10.12,0,0,0,3.7-7.77c0-2.62-1.19-5-3.74-7.58a53.64,53.64,0,0,0-36.29-13.83A55.17,55.17,0,0,0,804.46,138,47.93,47.93,0,0,0,788,174.45c0,23.28,21.32,49.23,51.92,49.23a57.25,57.25,0,0,0,25.11-6,53.7,53.7,0,0,0,11.85-8.56c2.75-2.5,4-5,4-8A9.51,9.51,0,0,0,876.75,193.43Z" fill="#edf1f7"/><path d="M926.53,146.4c5.19,0,12.42-4.13,12.42-10.86s-7.23-10.85-12.42-10.85H915.65V103.16c0-6.72-7.24-10.85-12.42-10.85-5.89,0-12.2,4.36-12.2,10.85v85.91c0,15.28,6.63,26.69,18.18,31.31a13.25,13.25,0,0,0,6.12,1.27c4.58,0,8.34-1.86,10.33-5.11a8.88,8.88,0,0,0,1.86-5.52c0-3.59-2-8.08-5.8-9.34-6.07-1.77-6.07-10.38-6.07-15.53V146.4Z" fill="#edf1f7"/></svg>