<svg height="350" viewBox="0 0 420 350" width="420" xmlns="http://www.w3.org/2000/svg" xmlns:xlink="http://www.w3.org/1999/xlink"><linearGradient id="a" gradientUnits="userSpaceOnUse" x1="328" x2="328" y1="20.89" y2="177.95"><stop offset="0" stop-color="#fff"/><stop offset="1" stop-color="#18cef2"/></linearGradient><linearGradient id="b" gradientUnits="userSpaceOnUse" x1="362.69" x2="393.59" y1="95.85" y2="165.5"><stop offset="0" stop-color="#b1e5f2" stop-opacity="0"/><stop offset="1" stop-color="#f2f2f2"/></linearGradient><linearGradient id="c" gradientUnits="userSpaceOnUse" x1="267.39" x2="326.39" y1="226.73" y2="208.07"><stop offset="0" stop-color="#b1e5f2" stop-opacity="0"/><stop offset="1" stop-color="#b3f2ff"/></linearGradient><linearGradient id="d" x1="234.9" x2="297.57" xlink:href="#c" y1="206.01" y2="170.34"/><path d="m416 235.56v-110.85l-88 50.81v110.85z" fill="#5d779b"/><path d="m328 175.52-88-50.81v110.85l88 50.81z" fill="#334866"/><path d="m416 124.71-88-50.81-88 50.81 88 50.81z" fill="#a3b7d6"/><path d="m304 226.31.1-37-40.1-23.03v36.96z" fill="#18cef2"/><path d="m384.1 124.77-56.1 32.3-56.1-32.3 56.1-32.39z" fill="#b3f2ff"/><path d="m328 92.38v18.48l40.1 23.12 16-9.21z" fill="#74e2f7"/><path d="m328 110.86v18.46l24.1 13.92 16-9.26z" fill="#46d8f5"/><path d="m328 129.32-.02 18.5 8.12 4.66 16-9.24z" fill="#18cef2"/><path d="m328 157.07 8.1-4.59-8.12-4.66z" fill="#129bb5"/><path d="m328 92.38-56.1 32.39 16.2 9.33 39.9-23.24z" fill="#d1f7ff"/><path d="m328 129.32v-18.46l-39.9 23.24 15.84 9.12z" fill="#b3f2ff"/><path d="m328 129.32-.02 18.5-7.88 4.7-16.16-9.3z" fill="#8ae7fa"/><path d="m327.98 147.82.02 9.25-7.9-4.55z" fill="#18cef2"/><path d="m296 230.94-32-18.44-24 13.79-200.05-115.47-32 18.49-7.95-4.6v9.24l7.94 4.59 208.06 120.07a48 48 0 0 0 48 0l32-18.44 8-4.62v-9.25z" fill="#c8d4e6"/><path d="m0 124.71 216 124.65a48 48 0 0 0 48 0l40-23 .1-37-8.1-4.6-56 32.32-200-115.47z" fill="#edf1f7"/><path d="m188.54 180.12.02 48.27-31.23-18.18z" fill="#f21860"/><path d="m188.54 180.12 31.51 30.09-31.49 18.18z" fill="#ffb3cc"/><path d="m208.26 202.39a7.13 7.13 0 0 1 -3.26 5.61c-1.79 1-3.24.21-3.24-1.85a7.13 7.13 0 0 1 3.24-5.58c1.81-1.06 3.26-.23 3.26 1.82z" fill="#fff"/><path d="m207 203.11a4.36 4.36 0 0 1 -2 3.42 1.2 1.2 0 0 1 -2-1.13 4.36 4.36 0 0 1 2-3.42 1.2 1.2 0 0 1 2 1.13z" fill="#334866"/><path d="m197.69 208.88a7.13 7.13 0 0 1 -3.24 5.58c-1.79 1-3.24.21-3.24-1.85a7.13 7.13 0 0 1 3.24-5.58c1.79-1.03 3.24-.2 3.24 1.85z" fill="#fff"/><path d="m196.43 209.61a4.36 4.36 0 0 1 -2 3.42 1.2 1.2 0 0 1 -2-1.13 4.36 4.36 0 0 1 2-3.42 1.2 1.2 0 0 1 2 1.13z" fill="#334866"/><path d="m210.52 218-6.69-8.79c-.54-.78-1.55-.95-2.71-.28a7 7 0 0 0 -3.14 5.43c0 1.3.61 2.09 1.5 2.21z" fill="#f21860"/><path d="m264 166.28v36.96l15.94-9.29.27-18.56z" fill="#5d779b"/><path d="m328 9.23 47.74 27.57v55.12l-47.74 27.57-47.74-27.57v-55.12z" fill="#b3f2ff"/><path d="m328 119.49v-55.13l-47.74-27.56v55.12z" fill="#18cef2"/><path d="m328 64.36 47.74-27.56v55.12l-47.74 27.57z" fill="#8ae7fa"/><path d="m96 170.88 24.19-13.94-.19-36.85-24 13.86z" fill="#8ae7fa"/><path d="m96 170.88-23.99-13.84-.01-36.95 24 13.86z" fill="#18cef2"/><path d="m96 106.24-24 13.85 24 13.86z" fill="#18cef2"/><path d="m96 133.95v-27.71l24 13.85z" fill="#b3f2ff"/><path d="m120 120.09-24 13.86-24-13.86.01 27.72 23.99 13.85 24-13.86z" fill="#af8afa"/><path d="m102 142.89a13.54 13.54 0 0 1 6.14-10.6c3.39-2 6.14-.39 6.14 3.5-.04 3.9-12.28 11-12.28 7.1z" fill="#fff"/><path d="m104.12 140.91a8.76 8.76 0 0 1 4-6.86c2.2-1.27 4-.25 4 2.27-.04 2.52-8 7.11-8 4.59z" fill="#334866"/><path d="m96 133.95v27.71l-23.99-13.85-.01-27.72z" fill="#8518f2"/><path d="m117 147.78-6.7-3.86a1.44 1.44 0 0 0 -1.38.14 4.44 4.44 0 0 0 -2 3.43 1.37 1.37 0 0 0 .54 1.26l6.83 3.92 1.06-2.72.66.39z" fill="#f21860"/><path d="m115.62 147.93a1.22 1.22 0 0 1 2 1.13 4.4 4.4 0 0 1 -2 3.43c-1.12.64-2 .13-2-1.13a4.44 4.44 0 0 1 2-3.43z" fill="#ffb3cc"/><path d="m163.24 163.58a22.77 22.77 0 0 0 -22.77-22.64 22.77 22.77 0 0 0 -22.77 22.64s0 0 0 .07 0 0 0 .07v18.44c0 3.37 2.21 6.74 6.65 9.3 8.86 5.12 23.38 5.12 32.25 0 4.44-2.56 6.65-5.93 6.66-9.3v-18.44s0 0 0-.07-.02-.05-.02-.07z" fill="#af8afa"/><path d="m162.42 165.12a13.83 13.83 0 0 1 -5.83 5.8c-8.87 5.12-23.38 5.12-32.25 0-4.26-2.46-6.45-5.67-6.61-8.91v6.59c0 3.38 2.21 6.75 6.65 9.32 8.86 5.12 23.38 5.12 32.25 0 5.95-3.45 7.88-8.38 5.79-12.8z" fill="#18cef2"/><path d="m165.46 159.63-3.95-2.32c-1.93-1.12-4.6-1-7.56.74-5.88 3.39-10.65 11.62-10.65 18.36 0 3.38 1.19 5.74 3.12 6.84l4 2.33-.49-1.68a10.34 10.34 0 0 0 4.05-1.42c5.88-3.39 10.65-11.62 10.65-18.36a10.73 10.73 0 0 0 -.55-3.54z" fill="#a3b7d6"/><path d="m168.38 166.35c0 6.75-4.77 15-10.65 18.36s-10.65.68-10.65-6.07 4.77-15 10.65-18.36 10.65-.68 10.65 6.07z" fill="#fff"/><path d="m156.49 174a4.75 4.75 0 0 1 -2.15 3.72 1.31 1.31 0 0 1 -2.15-1.23 4.75 4.75 0 0 1 2.15-3.72 1.31 1.31 0 0 1 2.15 1.23z" fill="#334866"/><path d="m164.59 169.23a4.75 4.75 0 0 1 -2.15 3.72 1.31 1.31 0 0 1 -2.15-1.23 4.75 4.75 0 0 1 2.15-3.72 1.31 1.31 0 0 1 2.15 1.23z" fill="#334866"/><path d="m184 230.94v9.24l-16 9.23v-9.23z" fill="#edf1f7"/><path d="m168 240.18-40-23.1 16.03-9.25 39.97 23.11z" fill="#edf1f7"/><path d="m168 249.41v-9.23l-40-23.1v9.23z" fill="#c8d4e6"/><path d="m168.05 249.4v9.24l-16 9.24v-9.24z" fill="#edf1f7"/><path d="m152.05 258.64-40-23.09 16.03-9.26 39.97 23.11z" fill="#edf1f7"/><path d="m152.05 267.88v-9.24l-40-23.09v9.22z" fill="#c8d4e6"/><path d="m152 267.9v9.24l-16 9.24v-9.24z" fill="#edf1f7"/><path d="m136 277.14-40-23.09 16.03-9.26 39.97 23.11z" fill="#edf1f7"/><path d="m136 286.38v-9.24l-40-23.09v9.22z" fill="#c8d4e6"/><path d="m136.05 286.28v9.24l-16 9.23v-9.23z" fill="#edf1f7"/><path d="m120.05 295.52-40-23.1 16.03-9.25 39.97 23.11z" fill="#edf1f7"/><path d="m120.05 304.75v-9.23l-40-23.1v9.23z" fill="#c8d4e6"/><path d="m104.12 184.83v9.23l-16 9.24v-9.24z" fill="#edf1f7"/><path d="m88.12 194.06-40-23.09 16.03-9.25 39.97 23.11z" fill="#edf1f7"/><path d="m88.12 203.3v-9.24l-40-23.09v9.23z" fill="#c8d4e6"/><path d="m88.17 203.29v9.24l-16 9.24v-9.24z" fill="#edf1f7"/><path d="m72.17 212.53-40-23.09 16.03-9.26 39.97 23.11z" fill="#edf1f7"/><path d="m72.17 221.77v-9.24l-40-23.09v9.22z" fill="#c8d4e6"/><path d="m72.12 221.79v9.24l-16 9.24v-9.24z" fill="#edf1f7"/><path d="m56.12 231.03-40-23.09 16.03-9.26 39.97 23.11z" fill="#edf1f7"/><path d="m56.12 240.27v-9.24l-40-23.09v9.22z" fill="#c8d4e6"/><path d="m56.17 240.17v9.23l-16 9.24v-9.24z" fill="#edf1f7"/><path d="m40.17 249.4-40-23.09 16.03-9.25 39.97 23.11z" fill="#edf1f7"/><path d="m40.17 258.64v-9.24l-40-23.09v9.22z" fill="#c8d4e6"/><path d="m384.1 124.77-56.1 32.3-56.1-32.3v-115.54l112.2 2.16z" fill="url(#a)" opacity=".5"/><path d="m384.1 124.77-56.1 32.3v-120.12l56.1-32.27z" fill="url(#b)"/><g opacity=".6"><path d="m381 89h6v6h-6z" fill="#18cef2" opacity=".5"/><path d="m392 76.9h4v4h-4z" fill="#8518f2" opacity=".5" transform="matrix(.70710678 -.70710678 .70710678 .70710678 59.61 301.71)"/><g fill="#18cef2"><path d="m382 66.9h4v4h-4z" opacity=".25" transform="matrix(.9945219 -.10452846 .10452846 .9945219 -5.1 40.54)"/><path d="m312.2 120.53h4v4h-4z" transform="matrix(.9945219 -.10452846 .10452846 .9945219 -11.09 33.53)"/><path d="m270 99.61h4v4h-4z" transform="matrix(.9945219 -.10452846 .10452846 .9945219 -9.14 29)"/><path d="m273.75 86.15h4v4h-4z" opacity=".6" transform="matrix(.77637652 -.63026938 .63026938 .77637652 6.1 193.5)"/><path d="m260.95 78.34h4v4h-4z" opacity=".25" transform="matrix(.77637652 -.63026938 .63026938 .77637652 8.16 183.68)"/><path d="m368.71 104.37h4v4h-4z" opacity=".25" transform="matrix(.77637652 -.63026938 .63026938 .77637652 15.85 257.42)"/></g><path d="m266.61 66.93h3.29v3.29h-3.29z" fill="#8518f2" opacity=".25" transform="matrix(-.99007278 -.14055564 .14055564 -.99007278 524.2 174.16)"/><path d="m372.5 25.87h3.29v3.29h-3.29z" fill="#f21860" opacity=".25" transform="matrix(-.99007278 -.14055564 .14055564 -.99007278 740.7 107.33)"/><path d="m254.36 49.74h3.29v3.29h-3.29z" fill="#f21860" opacity=".25" transform="matrix(-.99007278 -.14055564 .14055564 -.99007278 502.24 138.24)"/><path d="m390.41 43.05h3.29v3.29h-3.29z" fill="#18cef2" opacity=".25" transform="matrix(-.99007278 -.14055564 .14055564 -.99007278 773.93 144.03)"/><path d="m272.03 28.71h3.29v3.29h-3.29z" fill="#18cef2" opacity=".25" transform="matrix(-.99007278 -.14055564 .14055564 -.99007278 540.37 98.87)"/></g><path d="m103.95 110.83-7.95 4.64v-9.23z" fill="#ffb3cc"/><path d="m96 115.47-7.99-4.62 7.99-4.61z" fill="#f21860"/><path d="m248 221.72v36.95l56-32.36.1-37z" fill="url(#c)"/><path d="m304.1 189.31-40.1-23.03-55.9 32.52 39.9 22.92z" fill="url(#d)"/><path d="m208 281.75v9.25l-16 9.2v-9.2z" fill="#8ae7fa"/><path d="m192 291-16-9.25-.03 9.25 16.03 9.2z" fill="#18cef2"/><path d="m208 281.75-16-9.24-16 9.24 16 9.25z" fill="#b3f2ff"/><path d="m208 267.92v9.25l-16 9.2v-9.2z" fill="#af8afa"/><path d="m192 277.17-16-9.25-.03 9.25 16.03 9.2z" fill="#8518f2"/><path d="m208 267.92-16-9.24-16 9.24 16 9.25z" fill="#ccb3ff"/><path d="m195.95 297.93v18.49l-3.95 2.28v-18.5z" fill="#c8d4e6"/><path d="m188.05 297.93v18.49l3.95 2.28v-18.5z" fill="#5d779b"/><path d="m224.01 78.54v9.26l-16 9.2v-9.2z" fill="#fa8aae"/><path d="m208.01 87.8-16-9.26-.02 9.26 16.02 9.2z" fill="#f21860"/><path d="m224.01 78.54-16-9.23-16 9.23 16 9.26z" fill="#ffb3cc"/><path d="m224.01 64.72v9.25l-16 9.2v-9.2z" fill="#af8afa"/><path d="m208.01 73.97-16-9.25-.02 9.25 16.02 9.2z" fill="#8518f2"/><path d="m224.01 64.72-16-9.24-16 9.24 16 9.25z" fill="#ccb3ff"/><path d="m211.96 94.73v18.49l-3.95 2.28v-18.5z" fill="#c8d4e6"/><path d="m204.06 94.73v18.49l3.95 2.28v-18.5z" fill="#5d779b"/><path d="m256.11 290.99v9.25l-16 9.2v-9.2z" fill="#8ae7fa"/><path d="m240.11 300.24-16-9.25-.02 9.25 16.02 9.2z" fill="#18cef2"/><path d="m256.11 290.99-16-9.24-16 9.24 16 9.25z" fill="#b3f2ff"/><path d="m244.06 307.17v18.49l-3.95 2.28v-18.5z" fill="#c8d4e6"/><path d="m236.16 307.17v18.49l3.95 2.28v-18.5z" fill="#5d779b"/><path d="m72 64.69.02 9.22-8.01 4.61v-9.21z" fill="#8ae7fa"/><path d="m64.01 69.31-8.03-4.64v9.24l8.03 4.61z" fill="#18cef2"/><path d="m72 64.69-7.96-4.62-8.06 4.6 8.03 4.64z" fill="#b3f2ff"/><path d="m72 50.88.02 9.21-8.01 4.6v-9.2z" fill="#8ae7fa"/><path d="m64.01 55.49-8.03-4.64v9.24l8.03 4.6z" fill="#18cef2"/><path d="m72 50.88-7.96-4.63-8.06 4.6 8.03 4.64z" fill="#b3f2ff"/><path d="m72 37.05.02 9.22-8.01 4.61v-9.21z" fill="#8ae7fa"/><path d="m64.01 41.67-8.03-4.64v9.24l8.03 4.61z" fill="#18cef2"/><path d="m72 37.05-7.96-4.62-8.06 4.6 8.03 4.64z" fill="#b3f2ff"/><path d="m67.96 76.24v18.49l-3.95 2.28v-18.49z" fill="#c8d4e6"/><path d="m60.06 76.24v18.49l3.95 2.28v-18.49z" fill="#5d779b"/></svg>