<svg height="350" viewBox="0 0 420 350" width="420" xmlns="http://www.w3.org/2000/svg"><path d="m304 254.03-136-78.52-112 64.67 136 78.52z" fill="#edf1f7"/><path d="m304 254.03v-129.33l-136-78.52v129.33z" fill="#a3b7d6"/><path d="m304 124.7 16-9.23v129.33l-16 9.23z" fill="#c8d4e6"/><path d="m320 115.47-136-78.52-16 9.23 136 78.52z" fill="#edf1f7"/><path d="m304 254.03v18.48l-112 64.66v-18.47z" fill="#c8d4e6"/><path d="m192 318.7-136-78.52-.1 18.42 136.1 78.57z" fill="#a3b7d6"/><path d="m263.99 258.61-55.99 32.38v-9.24l56.01-32.36z" fill="#5d779b"/><path d="m208 281.75-104-60.05-.1 9.3 104.1 59.99z" fill="#334866"/><path d="m208 281.75 56.01-32.36-104.02-60.06-55.99 32.37z" fill="#708db3"/><path d="m296 129.33-24 13.78v110.85l24-13.78z" fill="#c8d4e6"/><path d="m296 129.33-120-69.28-24 13.78 120 69.28z" fill="#edf1f7"/><path d="m272 253.96-120-69.28v-110.85l120 69.28z" fill="#a3b7d6"/><path d="m164 90c-2.2-1.27-4-.23-4 2.31a8.87 8.87 0 0 0 4 6.93c2.2 1.27 4 .23 4-2.31a8.87 8.87 0 0 0 -4-6.93z" fill="#f21860"/><path d="m180 99.24c-2.2-1.27-4-.23-4 2.31a8.87 8.87 0 0 0 4 6.93c2.2 1.27 4 .23 4-2.31a8.87 8.87 0 0 0 -4-6.93z" fill="#ffc852"/><path d="m196 108.37c-2.2-1.27-4-.23-4 2.31a8.87 8.87 0 0 0 4 6.93c2.2 1.27 4 .23 4-2.31a8.87 8.87 0 0 0 -4-6.93z" fill="#2bff96"/><path d="m264.09 240.16-104.09-60.03v-74.07l104.09 60.2z" fill="#fff"/><path d="m384.03 185.07-48-27.71v-92.38l48 27.71z" fill="#f21860"/><path d="m384.03 185.07 8.03-4.61v-92.4l-8.03 4.63z" fill="#fa8aae"/><path d="m344.06 60.38-8.03 4.6 48 27.71 8.03-4.63z" fill="#ffb3cc"/><path d="m384.03 92.69.01 27.72-48.01-27.63v-27.8z" fill="#b51248"/><path d="m345.56 150.32 17.73-21.82" fill="#b51248" stroke="#b51248" stroke-linecap="round" stroke-miterlimit="10" stroke-width="7"/><path d="m365.73 141.27a7.52 7.52 0 0 1 -3.61-1.16c-5.42-3.13-10-11.08-10-17.35 0-1.57.33-5.21 3.39-5.21a7.52 7.52 0 0 1 3.61 1.16c5.43 3.14 10 11.08 10 17.35.01 1.57-.33 5.21-3.39 5.21z" fill="#f21860"/><path d="m355.51 120.55a4.57 4.57 0 0 1 2.1.76c4.45 2.58 8.51 9.61 8.51 14.75a4.74 4.74 0 0 1 -.4 2.21 4.56 4.56 0 0 1 -2.11-.75c-4.45-2.57-8.51-9.6-8.51-14.75a4.76 4.76 0 0 1 .4-2.21m0-6c-3.78 0-6.39 3-6.39 8.21 0 7.32 5.18 16.29 11.51 19.95a10.37 10.37 0 0 0 5.11 1.56c3.78 0 6.4-3 6.4-8.21 0-7.31-5.18-16.29-11.51-19.95a10.36 10.36 0 0 0 -5.11-1.56z" fill="#b51248"/><path d="m359.99 258.63-48-27.71v-92.37l48 27.71z" fill="#8518f2"/><path d="m359.99 258.63 8.03-4.6v-92.4l-8.03 4.63z" fill="#af8afa"/><path d="m320.02 133.94-8.03 4.61 48 27.71 8.03-4.63z" fill="#ccb3ff"/><path d="m359.99 166.26v27.71l-48.09-27.67.09-27.75z" fill="#6412b5"/><path d="m343.9 240.31-16.02-9.3 8.11-8.85z" fill="#6412b5"/><path d="m343.9 221.81-16.02-9.3 8.11-8.85z" fill="#6412b5" opacity=".75"/><path d="m343.9 203.37-16.02-9.3 8.11-8.85z" fill="#6412b5" opacity=".5"/><path d="m336.08 272.5-48-27.71v-92.38l48 27.71z" fill="#18cef2"/><path d="m328.09 258.61-32-18.48v-36.95l15.99 9.24v9.23l16 9.25z" fill="#18cef2"/><path d="m328.09 258.61-8.02-23.09-32.08-18.43 8.1 23.04z" fill="#18cef2"/><path d="m336.08 272.5 8.03-4.61v-92.4l-8.03 4.63z" fill="#8ae7fa"/><path d="m296.11 147.81-8.03 4.6 48 27.71 8.03-4.63z" fill="#b3f2ff"/><g fill="#18cef2"><path d="m336.08 180.12.01 27.71-48.1-27.67.09-27.75z" opacity=".5"/><path d="m312.08 175.49v9.24l16.02 9.21v-9.24z" opacity=".5"/><path d="m296.09 166.28v9.24l8.02 4.6v-9.23z" opacity=".5"/><path d="m240 170.9c4.4 2.54 8 8.77 8 13.84s-3.6 7.14-8 4.6-8-8.77-8-13.84 3.6-7.14 8-4.6z"/><path d="m184 138.59c4.4 2.54 8 8.77 8 13.84s-3.6 7.14-8 4.6-8-8.77-8-13.84 3.59-7.19 8-4.6z"/></g></svg>