<svg height="50" viewBox="0 0 50 50" width="50" xmlns="http://www.w3.org/2000/svg" xmlns:xlink="http://www.w3.org/1999/xlink"><filter id="a" height="200%" width="200%" x="-50%" y="-50%"><feOffset dx="0" dy="4" in="SourceAlpha" result="shadowOffsetOuter1"/><feGaussianBlur in="shadowOffsetOuter1" result="shadowBlurOuter1" stdDeviation="3"/><feColorMatrix in="shadowBlurOuter1" result="shadowMatrixOuter1" type="matrix" values="0 0 0 0 0.0980392157   0 0 0 0 0.176470588   0 0 0 0 0.28627451  0 0 0 0.6 0"/><feMerge><feMergeNode in="shadowMatrixOuter1"/><feMergeNode in="SourceGraphic"/></feMerge></filter><g fill="none" fill-rule="evenodd" filter="url(#a)" transform="translate(-11 -5)"><g transform="translate(17 7)"><path d="m18.9999 30.9729 12 7.098v-23l-12-6.828z" fill="#a3b7d6"/><path d="m7.0002 15.0708v23l12-7.098v-22.729z" fill="#c8d4e6"/><path d="m18.9999.0003-19 11.571 3 1.5 16-9.199 16 9.199v22.5l3-2v-22.602z" fill="#5d779b"/><path d="m0 34.5711 3 1.5v-23l-3-1.499z" fill="#334866"/><path d="m2.9997 36.0714 4.001 2v-23.001l-4.001-1.999z" fill="#a3b7d6"/><path d="m2.9997 13.071 4.001 2 11.999-6.828 12 6.828v23l4-2.5v-22.5l-16-9.199z" fill="#edf1f8"/><path d="m19.0004 12.905 7.823 4.517v9.034l-7.824 4.517-7.823-4.517v-9.034z" fill="#f98caf"/><path d="m18.9997 30.9733.001-9.035-7.824-4.516v9.034z" fill="#f21860"/><path d="m19.0005 21.9387 7.823-4.516v9.033l-7.824 4.518z" fill="#f21860"/><path d="m24.625 22.25-5.3125 5.3125-5.3125-5.3125h3.1875v-4.25h4.25v4.25z" fill="#fff"/></g></g></svg>